<svg width="131" height="61" fill="none" xmlns="http://www.w3.org/2000/svg"><path d="M30.178.645C13.538.645 0 14.183 0 30.822 0 47.462 13.538 61 30.178 61s30.177-13.538 30.177-30.178S46.817.645 30.178.645Z" fill="#382E2C"/><path d="M30.178 58.024c15.023 0 27.201-12.179 27.201-27.202 0-15.023-12.178-27.202-27.201-27.202C15.154 3.62 2.976 15.8 2.976 30.822c0 15.023 12.178 27.202 27.202 27.202Z" fill="#FFC600"/><path d="M47.446 41.007c.084-.293-.042-.67-.335-.754-1.216-.377-2.096-1.886-1.719-3.94.335-2.054 1.006-5.323-.335-7 0 0-5.323-2.64-10.31-5.071-1.216 0-2.432-.084-3.312-.335.252.544.754 2.221.838 3.269-2.012.084-6.287-1.383-7.838-3.27.713-1.718.797-3.017.545-4.107-3.395-.67-7.754.838-8.592 4.569-1.886-1.383-6.287-1.51-8.047 1.718-1.425 2.599-.461 7.335-.21 8.592.252 1.132.503 2.012.922 2.473.42.461 1.3.67 2.096.755.503 2.473 3.143 2.389 2.389 4.568 1.215-.46 1.635-2.18 1.09-3.31.46 0 1.257.586 1.006 1.634 1.467-.294 1.006-2.473 1.844-2.808.46 3.269 3.688 4.317 2.766 6.622.713 0 1.55-.461 1.593-1.258 0 0 1.257 2.012.88 3.06l-1.509 2.222h4.108l.46-1.928s-.963-2.683-.88-4.234c.503-.083 1.216.545 1.174 1.132 1.467-1.09-.88-3.144-.293-4.82.293 1.509 1.718 1.802 1.844 3.018 3.604-.797 7.46-3.773 10.017-3.773 0 0 1.719 3.73 6.203 3.898.755 1.342 1.258 3.73 1.006 4.192l-1.467 2.473h3.982l.587-1.76c-.587-1.384-1.006-3.94-.503-5.827Z" fill="#382E2C"/><path d="M30.723 8.566c-3.773 1.97-3.94 4.904-3.94 4.904s2.053-.754 3.856-.712c-1.048 1.634-2.599 2.724-2.599 2.724s2.557-.042 4.317.713c-1.132 1.006-3.143 1.299-3.143 1.299s.712.629 1.299 2.43c-1.802.043-3.06-.628-3.06-.628s.168 2.306-.838 4.695c.587-.503 1.55-1.719 1.718-3.354 1.3.63 3.605.252 3.605.252s-.293-1.677-1.006-2.557c1.97-.293 4.275-2.389 4.275-2.389s-1.886-1.173-4.4-1.3c1.005-.796 2.053-2.975 2.053-2.975s-2.599-.293-4.191.377c2.766-3.73 9.514-2.221 10.981-1.257-1.425.126-3.688 1.173-4.317 1.886 5.323-.461 10.52 4.275 12.155 7.67-2.808-1.048-8.173 1.258-12.532.755 1.215.586 2.473 1.97 2.976 2.933-1.803.42-4.82.462-6.539 0 .252.545.755 2.222.838 3.27-2.012.084-6.287-1.383-7.837-3.27 2.305-5.448-1.928-7-2.054-9.807-.042-1.97 2.556-4.904 8.383-5.659ZM14.167 24.829c1.383 2.053-.084 3.06-1.342 3.52-.21.084-.628.336-.628.88 0 .545.419.965.964.965.21 0 .419-.084.503-.084 3.688-1.216 2.473-5.114.503-5.281ZM9.514 31.577c.294-.839 1.384-1.006 1.97-.587-.251.67-1.215.964-1.97.587Z" fill="#fff"/><path d="M84.204 11.668c0 2.598-.168 4.82-4.275 4.82-4.108 0-4.275-2.222-4.275-4.82V5.464h2.85v5.45c0 2.64-.042 3.1 1.425 3.1s1.425-.46 1.425-3.1v-5.45h2.85v6.204ZM129.973 10.159v1.55c0 2.6-.167 4.82-4.443 4.82-4.275 0-4.442-2.22-4.442-4.82v-1.55c0-2.599.167-4.82 4.442-4.82 4.276 0 4.443 2.18 4.443 4.82Zm-6.035.042v1.383c0 2.054.084 2.389 1.592 2.389 1.551 0 1.593-.335 1.593-2.389v-1.425c0-2.054-.084-2.39-1.593-2.39-1.508.043-1.592.378-1.592 2.432ZM93.09 38.618V18.961h5.113v19.657h-5.114ZM87.138 56.096V41.343h3.856v14.753h-3.856ZM117.693 47.881h-3.605c-2.808 0-2.976 2.892-2.976 2.892h2.809v.712c-.084 1.132-.713 1.384-2.012 1.384-2.096 0-2.18-.461-2.18-3.228v-1.886c0-2.808.084-3.227 2.18-3.227 1.467 0 1.802.293 1.886 1.718l3.688-1.34c-.377-2.18-1.593-3.731-5.574-3.731-5.784 0-6.036 2.976-6.036 6.496v2.054c0 3.52.252 6.497 6.036 6.497 3.52 0 4.945-1.258 5.49-3.018.419-1.341-.125-3.479.294-5.323ZM100.424 41.343v7l-3.353-7h-4.694s.587.964.587 2.64v12.113h3.856v-7l2.976 6.204c.251.545.628.796 1.299.796h3.185V41.343h-3.856ZM124.441 46.791c-1.467-.21-1.802-.461-1.802-1.09 0-.754.419-1.215 1.55-1.215 1.216 0 1.509.168 1.929 1.3l3.646-1.342c-.419-2.347-1.886-3.353-5.449-3.353-4.275 0-5.49 1.802-5.49 4.568 0 2.934 1.299 4.192 5.909 4.82 1.09.126 1.551.42 1.551 1.216s-.335 1.215-1.593 1.215c-1.341 0-1.55-.335-1.928-1.467l-3.897 1.425c.502 2.431 2.221 3.437 5.532 3.437 4.149 0 5.7-1.928 5.7-4.526 0-3.06-1.676-4.36-5.658-4.988ZM130.476 27.553c0-4.61-.335-8.592-8.173-8.592h-7.502s.503.42.503 3.06v16.597h6.999c7.88 0 8.173-3.981 8.173-8.55V27.553Zm-5.113 2.64c0 3.48-.168 3.94-3.06 3.94h-1.886v-9.137c0-1.131-.671-1.55-.671-1.55h2.557c2.934 0 3.06.503 3.06 3.981v2.767ZM109.226 34.134h-3.269V18.96h-5.113v19.657h12.741v-5.407s-1.09.923-4.359.923ZM117.777 13.889h-1.803V5.464h-2.85v10.898h7.084v-3.018s-.587.545-2.431.545ZM72.468 10.536c.964-.21 1.467-.796 1.467-2.515 0-2.347-1.3-2.598-3.73-2.598h-4.653s.461.545.461 2.221v8.676h4.024c2.766 0 4.233-.251 4.233-2.934 0-1.97-.628-2.64-1.802-2.85Zm-3.94-2.682h1.048c1.258 0 1.593 0 1.593.88 0 .713-.21.838-1.006.88h-1.341V8.608c0-.587-.294-.754-.294-.754Zm.922 6.12h-.586v-2.306h1.299c1.006 0 1.257.126 1.257 1.174 0 1.215-.377 1.131-1.97 1.131ZM108.514 5.464h-4.359s.377.922.167 1.593l-2.892 9.305h2.934l.713-2.599h3.143l.713 2.599h2.934l-3.353-10.898Zm-2.808 5.952.964-3.353.964 3.353h-1.928ZM86.132 18.96 83.617 32.5 81.48 20.344c-.21-1.09-1.005-1.341-1.634-1.341h-4.066c.713 1.3-.251 2.808-2.389 13.538l-2.515-13.538h-6.077s1.006.964 1.425 2.599l3.395 17.058h5.533c1.047 0 1.634-.964 1.802-1.76l1.593-8.299 1.97 10.101h5.574c.922 0 1.55-.754 1.718-1.634l3.563-18.023h-5.24v-.084ZM81.857 41.343 79.97 51.486l-1.593-9.137c-.126-.839-.755-1.006-1.216-1.006h-3.06c.546 1.006-.209 2.095-1.802 10.143l-1.886-10.143h-4.568s.754.712 1.048 1.97l2.514 12.783h4.15c.796 0 1.215-.712 1.341-1.34l1.216-6.246 1.467 7.586h4.19c.671 0 1.174-.586 1.3-1.215l2.683-13.538h-3.898ZM94.85 5.464v10.898h2.85v-4.108h1.509c1.048 0 1.467-.586 1.97-2.473h-3.52V7.937h3.143c.922 0 1.341.377 1.341.377v-2.85H94.85ZM86.006 5.464v10.898h2.85v-4.108h1.51c1.047 0 1.466-.586 1.969-2.473h-3.479V7.937H92c.922 0 1.34.377 1.34.377v-2.85h-7.334Z" fill="#382E2C"/></svg>